<?xml version="1.0" encoding="UTF-8" standalone="no"?>
<!-- Created with Inkscape (http://www.inkscape.org/) -->

<svg
   xmlns:dc="http://purl.org/dc/elements/1.1/"
   xmlns:cc="http://creativecommons.org/ns#"
   xmlns:rdf="http://www.w3.org/1999/02/22-rdf-syntax-ns#"
   xmlns:svg="http://www.w3.org/2000/svg"
   xmlns="http://www.w3.org/2000/svg"
   xmlns:sodipodi="http://sodipodi.sourceforge.net/DTD/sodipodi-0.dtd"
   xmlns:inkscape="http://www.inkscape.org/namespaces/inkscape"
   width="115.72628mm"
   height="38.575546mm"
   viewBox="0 0 410.05375 136.68501"
   id="svg5130"
   version="1.1"
   inkscape:version="0.91 r13725"
   sodipodi:docname="SI-26.svg">
  <defs
     id="defs5132" />
  <sodipodi:namedview
     id="base"
     pagecolor="#ffffff"
     bordercolor="#666666"
     borderopacity="1.0"
     inkscape:pageopacity="0.0"
     inkscape:pageshadow="2"
     inkscape:zoom="0.35"
     inkscape:cx="470.02687"
     inkscape:cy="-420.22892"
     inkscape:document-units="px"
     inkscape:current-layer="layer1"
     showgrid="false"
     fit-margin-top="0"
     fit-margin-left="0"
     fit-margin-right="0"
     fit-margin-bottom="0"
     inkscape:window-width="1309"
     inkscape:window-height="744"
     inkscape:window-x="57"
     inkscape:window-y="24"
     inkscape:window-maximized="1" />
  <metadata
     id="metadata5135">
    <rdf:RDF>
      <cc:Work
         rdf:about="">
        <dc:format>image/svg+xml</dc:format>
        <dc:type
           rdf:resource="http://purl.org/dc/dcmitype/StillImage" />
        <dc:title></dc:title>
      </cc:Work>
    </rdf:RDF>
  </metadata>
  <g
     inkscape:label="Layer 1"
     inkscape:groupmode="layer"
     id="layer1"
     transform="translate(533.5983,24.55172)">
    <g
       transform="matrix(1.25,0,0,-1.25,-676.6758,815.34953)"
       id="g5075">
      <g
         transform="translate(128.129,671.921)"
         id="g4508">
        <path
           inkscape:connector-curvature="0"
           id="path4510"
           style="fill:#156a51;fill-opacity:1;fill-rule:evenodd;stroke:none"
           d="m 0,0 300.709,0 c 7.516,0 13.667,-6.151 13.667,-13.669 l 0,-82.01 c 0,-7.519 -6.151,-13.669 -13.667,-13.669 l -300.709,0 c -7.516,0 -13.667,6.15 -13.667,13.669 l 0,82.01 C -13.667,-6.151 -7.516,0 0,0" />
      </g>
      <g
         transform="translate(128.129,666.453)"
         id="g4512">
        <path
           inkscape:connector-curvature="0"
           id="path4514"
           style="fill:#ffffff;fill-opacity:1;fill-rule:evenodd;stroke:none"
           d="m 0,0 c -4.51,0 -8.199,-3.69 -8.199,-8.201 l 0,-82.01 c 0,-4.511 3.689,-8.201 8.199,-8.201 l 300.709,0 c 4.509,0 8.201,3.69 8.201,8.201 l 0,82.01 C 308.91,-3.69 305.218,0 300.709,0 L 0,0 Z m 0,-6.56 300.709,0 c 0.9,0 1.639,-0.739 1.639,-1.641 l 0,-82.01 c 0,-0.903 -0.739,-1.641 -1.639,-1.641 L 0,-91.852 c -0.901,0 -1.639,0.738 -1.639,1.641 l 0,82.01 c 0,0.902 0.738,1.641 1.639,1.641" />
      </g>
      <g
         transform="translate(191.07,602.887)"
         id="g4516">
        <path
           inkscape:connector-curvature="0"
           id="path4518"
           style="fill:#ffffff;fill-opacity:1;fill-rule:nonzero;stroke:none"
           d="m 0,0 c -1.832,-1.016 -3.871,-1.524 -6.12,-1.524 -3.807,0 -6.737,1.451 -8.788,4.352 -1.793,2.557 -2.692,5.811 -2.692,9.765 0,4.081 0.908,7.354 2.721,9.821 2.049,2.811 5.04,4.217 8.977,4.217 2.176,0 4.166,-0.531 5.97,-1.594 1.805,-1.058 3.259,-2.534 4.366,-4.418 L 0.11,18.306 c -0.436,0.561 -0.752,0.98 -0.953,1.252 -1.414,1.468 -3.263,2.202 -5.549,2.202 -2.212,0 -3.881,-1.06 -5.005,-3.182 -0.87,-1.668 -1.306,-3.709 -1.306,-6.12 0,-2.484 0.463,-4.542 1.387,-6.174 1.161,-2.014 2.893,-3.021 5.196,-3.021 2.23,0 4.307,1.169 6.23,3.509 L 4.434,4.461 C 3.4,2.558 1.923,1.069 0,0" />
      </g>
      <g
         transform="translate(212.032,609.987)"
         id="g4520">
        <path
           inkscape:connector-curvature="0"
           id="path4522"
           style="fill:#ffffff;fill-opacity:1;fill-rule:nonzero;stroke:none"
           d="m 0,0 c -1.589,0.635 -2.963,0.953 -4.12,0.953 -0.866,0 -1.635,-0.191 -2.303,-0.573 -0.796,-0.453 -1.194,-1.088 -1.194,-1.904 0,-0.87 0.38,-1.541 1.14,-2.012 0.631,-0.418 1.4,-0.626 2.303,-0.626 1.175,0 2.567,0.372 4.174,1.114 L 0,0 Z m 0,-7.264 c -1.483,-0.833 -3.057,-1.25 -4.722,-1.25 -2.135,0 -3.863,0.581 -5.184,1.74 -1.375,1.198 -2.062,2.857 -2.062,4.978 0,2.232 0.692,3.935 2.081,5.115 1.296,1.106 3.069,1.659 5.322,1.659 1.548,0 3.07,-0.227 4.565,-0.679 -0.037,1.049 -0.413,1.865 -1.132,2.448 -0.668,0.507 -1.539,0.762 -2.619,0.762 -1.459,0 -3.033,-0.5 -4.724,-1.497 l -1.971,4.189 c 2.339,1.341 4.662,2.012 6.965,2.012 5.404,0 8.106,-2.766 8.106,-8.296 l 0,-12.051 -4.625,0 0,0.87 z" />
      </g>
      <g
         transform="translate(221.217,621.711)"
         id="g4524">
        <path
           inkscape:connector-curvature="0"
           id="path4526"
           style="fill:#ffffff;fill-opacity:1;fill-rule:nonzero;stroke:none"
           d="m 0,0 4.868,0 0,-1.443 c 1.017,1.144 2.295,1.715 3.837,1.715 1.523,0 2.792,-0.382 3.807,-1.144 L 10.99,-5.549 C 10.3,-4.787 9.503,-4.407 8.597,-4.407 7.472,-4.407 6.569,-4.766 5.889,-5.482 5.21,-6.197 4.868,-7.109 4.868,-8.215 l 0,-11.642 -4.868,0 L 0,0 Z" />
      </g>
      <g
         transform="translate(238.29,621.711)"
         id="g4528">
        <path
           inkscape:connector-curvature="0"
           id="path4530"
           style="fill:#ffffff;fill-opacity:1;fill-rule:nonzero;stroke:none"
           d="m 0,0 4.868,0 0,-1.443 c 1.017,1.144 2.295,1.715 3.837,1.715 1.523,0 2.792,-0.382 3.807,-1.144 L 10.99,-5.549 C 10.3,-4.787 9.503,-4.407 8.597,-4.407 7.472,-4.407 6.569,-4.766 5.889,-5.482 5.21,-6.197 4.868,-7.109 4.868,-8.215 l 0,-11.642 -4.868,0 L 0,0 Z" />
      </g>
      <g
         transform="translate(266.38,616.623)"
         id="g4532">
        <path
           inkscape:connector-curvature="0"
           id="path4534"
           style="fill:#ffffff;fill-opacity:1;fill-rule:nonzero;stroke:none"
           d="m 0,0 c -0.527,0.671 -1.369,1.007 -2.531,1.007 -0.925,0 -1.705,-0.372 -2.337,-1.115 -0.546,-0.654 -0.899,-1.47 -1.063,-2.45 l 7.073,0 C 0.652,-1.196 0.272,-0.345 0,0 m 4.106,-12.022 c -1.668,-2.141 -3.807,-3.21 -6.419,-3.21 -2.611,0 -4.75,1.106 -6.419,3.318 -1.523,2.013 -2.285,4.37 -2.285,7.073 0,2.555 0.725,4.841 2.177,6.855 1.595,2.247 3.634,3.371 6.118,3.371 2.813,0 4.998,-1.178 6.556,-3.535 1.343,-2.012 2.014,-4.516 2.014,-7.507 l 0,-0.708 -12.078,0 c 0.326,-0.997 0.571,-1.751 0.735,-2.257 0.762,-1.489 1.823,-2.231 3.182,-2.231 1.144,0 2.193,0.571 3.156,1.714 l 3.263,-2.883 z" />
      </g>
      <g
         transform="translate(276.788,621.711)"
         id="g4536">
        <path
           inkscape:connector-curvature="0"
           id="path4538"
           style="fill:#ffffff;fill-opacity:1;fill-rule:nonzero;stroke:none"
           d="m 0,0 4.868,0 0,-1.443 c 1.017,1.144 2.295,1.715 3.837,1.715 1.523,0 2.792,-0.382 3.807,-1.144 L 10.99,-5.549 c -0.69,0.762 -1.487,1.142 -2.394,1.142 -1.124,0 -2.027,-0.359 -2.708,-1.075 -0.678,-0.715 -1.02,-1.627 -1.02,-2.733 l 0,-11.642 -4.868,0 L 0,0 Z" />
      </g>
      <g
         transform="translate(305.83,609.987)"
         id="g4540">
        <path
           inkscape:connector-curvature="0"
           id="path4542"
           style="fill:#ffffff;fill-opacity:1;fill-rule:nonzero;stroke:none"
           d="m 0,0 c -1.589,0.635 -2.963,0.953 -4.12,0.953 -0.868,0 -1.635,-0.191 -2.303,-0.573 -0.794,-0.453 -1.194,-1.088 -1.194,-1.904 0,-0.87 0.38,-1.541 1.14,-2.012 0.631,-0.418 1.399,-0.626 2.303,-0.626 1.175,0 2.565,0.372 4.174,1.114 L 0,0 Z m 0,-7.264 c -1.485,-0.833 -3.059,-1.25 -4.722,-1.25 -2.135,0 -3.863,0.581 -5.184,1.74 -1.375,1.198 -2.062,2.857 -2.062,4.978 0,2.232 0.692,3.935 2.079,5.115 1.298,1.106 3.071,1.659 5.324,1.659 1.548,0 3.07,-0.227 4.565,-0.679 -0.037,1.049 -0.415,1.865 -1.134,2.448 -0.666,0.507 -1.537,0.762 -2.617,0.762 -1.459,0 -3.034,-0.5 -4.724,-1.497 l -1.971,4.189 c 2.339,1.341 4.662,2.012 6.965,2.012 5.402,0 8.106,-2.766 8.106,-8.296 l 0,-12.051 -4.625,0 0,0.87 z" />
      </g>
      <g
         transform="translate(336.639,608.517)"
         id="g4544">
        <path
           inkscape:connector-curvature="0"
           id="path4546"
           style="fill:#ffffff;fill-opacity:1;fill-rule:nonzero;stroke:none"
           d="m 0,0 c 2.465,-1.487 5.005,-2.23 7.615,-2.23 3.338,0 5.487,0.951 6.448,2.857 0.345,0.669 0.519,1.304 0.519,1.904 0,1.685 -0.593,2.964 -1.769,3.834 C 11.76,7.146 10.363,7.536 8.624,7.536 6.629,7.536 4.805,7.19 3.155,6.502 l -4.87,1.252 0.872,12.784 18.144,0 -0.11,-4.788 -13.463,0 -0.303,-3.89 c 1.779,0.436 3.447,0.652 5.008,0.652 3.045,0 5.612,-0.86 7.695,-2.583 2.215,-1.849 3.32,-4.27 3.32,-7.263 0,-3.102 -1.225,-5.559 -3.671,-7.37 -2.214,-1.615 -4.914,-2.423 -8.104,-2.423 -3.684,0 -7.102,1.007 -10.258,3.021 L 0,0 Z" />
      </g>
      <g
         transform="translate(377.323,621.629)"
         id="g4548">
        <path
           inkscape:connector-curvature="0"
           id="path4550"
           style="fill:#ffffff;fill-opacity:1;fill-rule:nonzero;stroke:none"
           d="m 0,0 c -1.125,2.048 -2.864,3.074 -5.221,3.074 -2.288,0 -4.028,-1.033 -5.225,-3.101 -0.961,-1.688 -1.441,-3.763 -1.441,-6.23 0,-2.484 0.48,-4.542 1.441,-6.174 1.161,-2.031 2.902,-3.046 5.225,-3.046 2.21,0 3.896,1.042 5.059,3.127 0.96,1.722 1.441,3.763 1.441,6.122 C 1.279,-3.672 0.851,-1.597 0,0 m 3.508,-15.858 c -2.048,-2.938 -5.013,-4.408 -8.895,-4.408 -3.717,0 -6.6,1.497 -8.649,4.489 -1.759,2.594 -2.638,5.83 -2.638,9.711 0,3.917 0.906,7.136 2.721,9.655 2.048,2.884 4.957,4.327 8.732,4.327 3.751,0 6.652,-1.424 8.702,-4.271 1.796,-2.521 2.693,-5.732 2.693,-9.63 0,-4.025 -0.889,-7.316 -2.666,-9.873" />
      </g>
    </g>
  </g>
</svg>
