<?xml version="1.0" encoding="utf-8"?>
<!-- Generator: Adobe Illustrator 16.0.0, SVG Export Plug-In . SVG Version: 6.00 Build 0)  -->
<!DOCTYPE svg PUBLIC "-//W3C//DTD SVG 1.1//EN" "http://www.w3.org/Graphics/SVG/1.1/DTD/svg11.dtd">
<svg version="1.1" id="Capa_1" xmlns="http://www.w3.org/2000/svg" xmlns:xlink="http://www.w3.org/1999/xlink" x="0px" y="0px"
	 width="2551.182px" height="3401.574px" viewBox="0 0 2551.182 3401.574" enable-background="new 0 0 2551.182 3401.574"
	 xml:space="preserve">
<rect x="0.572" y="0.955" fill="#1B4081" width="2551.18" height="3401.574"/>
<path fill="#FFFFFF" d="M2380.002,1858.246c0,31.31-25.383,56.691-56.693,56.691H229.013c-31.311,0-56.691-25.382-56.691-56.691
	V229.397c0-31.311,25.381-56.692,56.691-56.692h2094.295c31.311,0,56.693,25.382,56.693,56.692V1858.246z"/>
<path fill="#FFFFFF" d="M2380.002,3174.088c0,31.311-25.383,56.692-56.693,56.692H229.013c-31.311,0-56.691-25.382-56.691-56.692
	v-1000.69c0-31.311,25.381-56.693,56.691-56.693h2094.295c31.311,0,56.693,25.383,56.693,56.693V3174.088z"/>
<g>
	<path fill="#231F20" d="M505.8,2452.766l-75.832-204.938h46.454l53.69,151.676l51.953-151.676h45.441l-75.977,204.938H505.8z"/>
	<path fill="#231F20" d="M643.435,2452.766v-204.938h157.307v34.668H686.269v45.433h106.514v34.529H686.269v55.778h118.525v34.529
		H643.435z"/>
	<path fill="#231F20" d="M836.347,2452.766v-203.261h42.838v168.731h106.512v34.529H836.347z"/>
	<path fill="#231F20" d="M1001.623,2351.554c0-20.875,3.23-38.394,9.695-52.563c4.823-10.436,11.41-19.803,19.755-28.098
		c8.343-8.295,17.487-14.445,27.423-18.453c13.218-5.403,28.461-8.108,45.732-8.108c31.258,0,56.27,9.366,75.035,28.099
		c18.765,18.732,28.148,44.782,28.148,78.145c0,33.087-9.312,58.973-27.932,77.656c-18.62,18.688-43.512,28.029-74.673,28.029
		c-31.549,0-56.636-9.297-75.254-27.889C1010.931,2409.778,1001.623,2384.175,1001.623,2351.554z M1045.761,2350.157
		c0,23.205,5.548,40.797,16.644,52.771c11.093,11.977,25.179,17.964,42.257,17.964c17.076,0,31.09-5.941,42.041-17.823
		c10.947-11.883,16.424-29.707,16.424-53.473c0-23.484-5.332-41.005-15.99-52.563c-10.66-11.555-24.819-17.334-42.475-17.334
		s-31.889,5.85-42.692,17.544C1051.164,2308.94,1045.761,2326.58,1045.761,2350.157z"/>
	<path fill="#231F20" d="M1370.658,2377.417l41.535,12.721c-6.367,22.367-16.957,38.981-31.766,49.837
		c-14.811,10.858-33.6,16.286-56.365,16.286c-28.176,0-51.33-9.297-69.467-27.889c-18.141-18.594-27.207-44.012-27.207-76.258
		c0-34.11,9.118-60.602,27.353-79.475c18.235-18.871,42.207-28.308,71.925-28.308c25.951,0,47.033,7.409,63.24,22.228
		c9.646,8.761,16.883,21.342,21.709,37.744l-42.402,9.785c-2.51-10.624-7.742-19.011-15.703-25.162
		c-7.959-6.151-17.633-9.227-29.016-9.227c-15.725,0-28.486,5.451-38.277,16.355c-9.793,10.904-14.689,28.566-14.689,52.982
		c0,25.91,4.824,44.363,14.472,55.358c9.646,10.998,22.189,16.496,37.627,16.496c11.381,0,21.176-3.495,29.377-10.485
		C1361.203,2403.418,1367.09,2392.423,1370.658,2377.417z"/>
	<path fill="#231F20" d="M1441.721,2452.766v-204.938h42.84v204.938H1441.721z"/>
	<path fill="#231F20" d="M1519.297,2247.828h78.291c17.656,0,31.115,1.305,40.377,3.913c12.445,3.543,23.105,9.834,31.982,18.873
		c8.877,9.041,15.631,20.107,20.262,33.2c4.631,13.096,6.945,29.241,6.945,48.438c0,16.869-2.17,31.409-6.51,43.616
		c-5.309,14.913-12.881,26.98-22.723,36.207c-7.432,6.989-17.463,12.441-30.102,16.356c-9.457,2.889-22.092,4.333-37.916,4.333
		h-80.607V2247.828z M1562.133,2282.496v135.74h31.982c11.963,0,20.598-0.651,25.904-1.956c6.947-1.679,12.711-4.521,17.295-8.528
		c4.582-4.006,8.32-10.601,11.215-19.781c2.895-9.179,4.342-21.69,4.342-37.534s-1.447-28.006-4.342-36.486
		s-6.945-15.098-12.156-19.852c-5.209-4.753-11.82-7.969-19.826-9.646c-5.982-1.304-17.705-1.957-35.166-1.957H1562.133z"/>
	<path fill="#231F20" d="M1918.869,2452.766h-46.6l-18.523-46.552h-84.805l-17.512,46.552h-45.441l82.635-204.938h45.297
		L1918.869,2452.766z M1839.998,2371.685l-29.234-76.048l-28.654,76.048H1839.998z"/>
	<path fill="#231F20" d="M1935.52,2247.828h78.289c17.656,0,31.115,1.305,40.379,3.913c12.443,3.543,23.104,9.834,31.98,18.873
		c8.875,9.041,15.631,20.107,20.262,33.2c4.633,13.096,6.945,29.241,6.945,48.438c0,16.869-2.17,31.409-6.512,43.616
		c-5.307,14.913-12.879,26.98-22.719,36.207c-7.432,6.989-17.465,12.441-30.104,16.356c-9.457,2.889-22.094,4.333-37.916,4.333
		h-80.605V2247.828z M1978.354,2282.496v135.74h31.982c11.963,0,20.6-0.651,25.904-1.956c6.947-1.679,12.711-4.521,17.295-8.528
		c4.58-4.006,8.32-10.601,11.215-19.781c2.896-9.179,4.342-21.69,4.342-37.534s-1.445-28.006-4.342-36.486
		c-2.895-8.48-6.945-15.098-12.156-19.852c-5.209-4.753-11.82-7.969-19.824-9.646c-5.984-1.304-17.707-1.957-35.166-1.957H1978.354z
		"/>
	<path fill="#231F20" d="M376.706,2692.062l41.535,12.722c-6.368,22.367-16.958,38.981-31.765,49.837
		c-14.813,10.857-33.602,16.285-56.369,16.285c-28.172,0-51.328-9.295-69.465-27.889c-18.14-18.592-27.207-44.011-27.207-76.258
		c0-34.109,9.117-60.601,27.352-79.473c18.234-18.873,42.207-28.309,71.924-28.309c25.953,0,47.034,7.409,63.243,22.227
		c9.646,8.762,16.882,21.344,21.707,37.745l-42.402,9.786c-2.509-10.625-7.742-19.013-15.702-25.164
		c-7.959-6.15-17.633-9.226-29.015-9.226c-15.728,0-28.487,5.452-38.278,16.356c-9.795,10.903-14.689,28.565-14.689,52.981
		c0,25.91,4.822,44.362,14.471,55.358c9.647,10.998,22.189,16.496,37.627,16.496c11.384,0,21.178-3.495,29.379-10.484
		C367.25,2718.063,373.135,2707.067,376.706,2692.062z"/>
	<path fill="#231F20" d="M440.387,2666.2c0-20.875,3.231-38.396,9.696-52.563c4.824-10.438,11.408-19.803,19.755-28.1
		c8.345-8.293,17.485-14.444,27.423-18.453c13.217-5.403,28.459-8.107,45.731-8.107c31.259,0,56.271,9.366,75.036,28.099
		c18.765,18.732,28.146,44.782,28.146,78.146c0,33.085-9.31,58.971-27.93,77.655c-18.62,18.687-43.513,28.028-74.674,28.028
		c-31.549,0-56.635-9.295-75.254-27.889C449.697,2724.425,440.387,2698.82,440.387,2666.2z M484.527,2664.802
		c0,23.206,5.547,40.799,16.643,52.772c11.092,11.977,25.18,17.964,42.258,17.964c17.076,0,31.089-5.941,42.04-17.824
		c10.948-11.883,16.427-29.706,16.427-53.471c0-23.486-5.332-41.006-15.992-52.563c-10.661-11.556-24.819-17.335-42.475-17.335
		s-31.889,5.849-42.693,17.544C489.927,2623.587,484.527,2641.225,484.527,2664.802z"/>
	<path fill="#231F20" d="M674.113,2767.411v-204.939h41.678l86.832,136.859v-136.859h39.799v204.939H799.44l-85.53-133.644v133.644
		H674.113z"/>
	<path fill="#231F20" d="M929.546,2767.411v-170.27h-62.952v-34.67h168.596v34.67h-62.807v170.27H929.546z"/>
	<path fill="#231F20" d="M1057.048,2767.411v-204.939h90.159c22.671,0,39.146,1.842,49.421,5.522
		c10.276,3.683,18.501,10.229,24.676,19.642c6.174,9.414,9.262,20.178,9.262,32.292c0,15.378-4.682,28.077-14.038,38.095
		c-9.358,10.019-23.349,16.334-41.968,18.941c9.262,5.221,16.907,10.952,22.938,17.195c6.027,6.244,14.156,17.334,24.386,33.271
		l25.903,39.981h-51.23l-30.969-44.594c-11-15.938-18.525-25.979-22.576-30.127c-4.053-4.146-8.346-6.989-12.881-8.527
		c-4.535-1.537-11.721-2.307-21.562-2.307h-8.685v85.555H1057.048z M1099.884,2649.146h31.693c20.552,0,33.381-0.84,38.496-2.518
		c5.113-1.677,9.116-4.564,12.012-8.666c2.895-4.101,4.342-9.227,4.342-15.378c0-6.896-1.906-12.464-5.717-16.706
		c-3.813-4.239-9.189-6.92-16.137-8.037c-3.471-0.466-13.893-0.699-31.259-0.699h-33.431V2649.146z"/>
	<path fill="#231F20" d="M1256.332,2666.2c0-20.875,3.231-38.396,9.696-52.563c4.823-10.438,11.41-19.803,19.753-28.1
		c8.344-8.293,17.488-14.444,27.424-18.453c13.217-5.403,28.461-8.107,45.732-8.107c31.258,0,56.27,9.366,75.035,28.099
		c18.764,18.732,28.146,44.782,28.146,78.146c0,33.085-9.311,58.971-27.93,77.655c-18.621,18.687-43.512,28.028-74.674,28.028
		c-31.549,0-56.635-9.295-75.254-27.889C1265.64,2724.425,1256.332,2698.82,1256.332,2666.2z M1300.471,2664.802
		c0,23.206,5.549,40.799,16.643,52.772c11.094,11.977,25.18,17.964,42.258,17.964c17.076,0,31.088-5.941,42.041-17.824
		c10.947-11.883,16.424-29.706,16.424-53.471c0-23.486-5.332-41.006-15.99-52.563c-10.66-11.556-24.82-17.335-42.475-17.335
		c-17.656,0-31.889,5.849-42.691,17.544C1305.871,2623.587,1300.471,2641.225,1300.471,2664.802z"/>
	<path fill="#231F20" d="M1490.781,2767.411v-203.262h42.836v168.732h106.512v34.529H1490.781z"/>
	<path fill="#231F20" d="M1856.055,2767.411h-46.6l-18.523-46.552h-84.805l-17.512,46.552h-45.441l82.635-204.939h45.297
		L1856.055,2767.411z M1777.186,2686.33l-29.234-76.048l-28.654,76.048H1777.186z"/>
	<path fill="#231F20" d="M1872.703,2562.472h78.293c17.654,0,31.113,1.307,40.375,3.915c12.447,3.543,23.107,9.833,31.984,18.872
		c8.875,9.041,15.629,20.108,20.26,33.201c4.631,13.095,6.947,29.241,6.947,48.439c0,16.869-2.172,31.407-6.514,43.615
		c-5.307,14.912-12.879,26.98-22.723,36.207c-7.428,6.99-17.461,12.441-30.098,16.355c-9.457,2.891-22.096,4.334-37.916,4.334
		h-80.609V2562.472z M1915.539,2597.142v135.74h31.982c11.963,0,20.598-0.65,25.906-1.957c6.945-1.678,12.709-4.52,17.293-8.527
		c4.582-4.006,8.322-10.601,11.217-19.781c2.893-9.178,4.34-21.689,4.34-37.535c0-15.842-1.447-28.004-4.34-36.486
		c-2.895-8.479-6.947-15.098-12.158-19.851c-5.209-4.753-11.818-7.968-19.826-9.646c-5.982-1.305-17.705-1.957-35.166-1.957
		H1915.539z"/>
	<path fill="#231F20" d="M2272.275,2767.411h-46.6l-18.523-46.552h-84.805l-17.512,46.552h-45.439l82.633-204.939h45.297
		L2272.275,2767.411z M2193.404,2686.33l-29.232-76.048l-28.654,76.048H2193.404z"/>
	<path fill="#231F20" d="M427.001,3082.058v-204.939h68.74c26.049,0,43.03,1.027,50.943,3.076
		c12.154,3.074,22.334,9.764,30.534,20.061c8.199,10.299,12.301,23.604,12.301,39.91c0,12.582-2.364,23.16-7.093,31.734
		c-4.727,8.575-10.732,15.307-18.018,20.199c-7.284,4.894-14.687,8.133-22.213,9.717c-10.229,1.957-25.036,2.936-44.428,2.936
		h-27.931v77.307H427.001z M469.838,2911.788v58.154h23.442c16.883,0,28.172-1.07,33.865-3.216
		c5.692-2.143,10.153-5.497,13.387-10.065c3.23-4.564,4.848-9.877,4.848-15.937c0-7.454-2.268-13.605-6.803-18.452
		c-4.535-4.846-10.273-7.875-17.221-9.087c-5.115-0.931-15.39-1.397-30.824-1.397H469.838z"/>
	<path fill="#231F20" d="M610.076,2980.846c0-20.875,3.231-38.396,9.696-52.563c4.823-10.437,11.407-19.803,19.753-28.099
		c8.345-8.294,17.486-14.445,27.425-18.453c13.217-5.404,28.46-8.107,45.729-8.107c31.261,0,56.271,9.365,75.037,28.098
		c18.764,18.732,28.148,44.783,28.148,78.146c0,33.085-9.311,58.972-27.93,77.655c-18.623,18.688-43.514,28.029-74.676,28.029
		c-31.549,0-56.634-9.296-75.253-27.889C619.384,3039.07,610.076,3013.466,610.076,2980.846z M654.215,2979.448
		c0,23.205,5.546,40.798,16.642,52.771c11.094,11.977,25.181,17.965,42.258,17.965s31.09-5.941,42.041-17.824
		c10.948-11.883,16.425-29.707,16.425-53.472c0-23.485-5.333-41.005-15.99-52.563c-10.663-11.556-24.821-17.335-42.476-17.335
		c-17.656,0-31.887,5.85-42.691,17.545C659.617,2938.232,654.215,2955.87,654.215,2979.448z"/>
	<path fill="#231F20" d="M843.511,3082.058v-204.939h90.16c22.671,0,39.146,1.842,49.42,5.521
		c10.275,3.684,18.5,10.229,24.676,19.643c6.173,9.414,9.262,20.178,9.262,32.291c0,15.378-4.682,28.078-14.039,38.095
		c-9.357,10.019-23.349,16.334-41.968,18.942c9.264,5.221,16.907,10.951,22.939,17.194c6.027,6.245,14.156,17.335,24.384,33.271
		l25.905,39.982h-51.23l-30.97-44.595c-10.999-15.937-18.525-25.978-22.574-30.126c-4.054-4.146-8.348-6.99-12.882-8.527
		s-11.722-2.307-21.563-2.307h-8.685v85.555H843.511z M886.347,2963.791h31.694c20.55,0,33.381-0.839,38.494-2.517
		s9.118-4.564,12.013-8.667c2.894-4.101,4.341-9.227,4.341-15.378c0-6.896-1.905-12.463-5.717-16.705
		c-3.812-4.24-9.188-6.92-16.135-8.038c-3.474-0.466-13.892-0.698-31.261-0.698h-33.43V2963.791z"/>
	<path fill="#231F20" d="M1128.039,3082.058v-204.939h90.16c22.671,0,39.145,1.842,49.42,5.521
		c10.278,3.684,18.5,10.229,24.676,19.643c6.172,9.414,9.262,20.178,9.262,32.291c0,15.378-4.682,28.078-14.037,38.095
		c-9.361,10.019-23.35,16.334-41.969,18.942c9.262,5.221,16.907,10.951,22.938,17.194c6.027,6.245,14.158,17.335,24.384,33.271
		l25.904,39.982h-51.231l-30.969-44.595c-11-15.937-18.525-25.978-22.575-30.126c-4.053-4.146-8.347-6.99-12.881-8.527
		c-4.535-1.537-11.722-2.307-21.562-2.307h-8.686v85.555H1128.039z M1170.875,2963.791h31.694c20.551,0,33.381-0.839,38.495-2.517
		c5.111-1.678,9.117-4.564,12.011-8.667c2.895-4.101,4.343-9.227,4.343-15.378c0-6.896-1.906-12.463-5.717-16.705
		c-3.813-4.24-9.189-6.92-16.137-8.038c-3.473-0.466-13.893-0.698-31.26-0.698h-33.43V2963.791z"/>
	<path fill="#231F20" d="M1527.322,3082.058h-46.6l-18.523-46.553h-84.805l-17.512,46.553h-45.441l82.635-204.939h45.297
		L1527.322,3082.058z M1448.451,3000.976l-29.234-76.047l-28.654,76.047H1448.451z"/>
	<path fill="#231F20" d="M1543.971,2877.118h78.293c17.654,0,31.113,1.307,40.375,3.914c12.445,3.543,23.105,9.834,31.982,18.873
		c8.877,9.041,15.631,20.107,20.262,33.201s6.945,29.24,6.945,48.438c0,16.869-2.17,31.407-6.512,43.616
		c-5.307,14.912-12.879,26.98-22.721,36.207c-7.43,6.989-17.463,12.441-30.102,16.355c-9.457,2.89-22.094,4.334-37.916,4.334
		h-80.607V2877.118z M1586.807,2911.788v135.74h31.982c11.963,0,20.598-0.651,25.904-1.957c6.947-1.678,12.711-4.52,17.295-8.527
		c4.58-4.007,8.32-10.602,11.215-19.781c2.895-9.179,4.342-21.69,4.342-37.535c0-15.843-1.447-28.005-4.342-36.486
		c-2.895-8.479-6.947-15.098-12.156-19.852c-5.211-4.752-11.818-7.968-19.826-9.645c-5.982-1.305-17.705-1.957-35.166-1.957
		H1586.807z"/>
	<path fill="#231F20" d="M1943.543,3082.058h-46.6l-18.523-46.553h-84.805l-17.512,46.553h-45.441l82.635-204.939h45.295
		L1943.543,3082.058z M1864.672,3000.976l-29.234-76.047l-28.654,76.047H1864.672z"/>
	<path fill="#231F20" d="M1960.48,3082.058v-204.939h90.16c22.672,0,39.145,1.842,49.422,5.521
		c10.273,3.684,18.5,10.229,24.674,19.643c6.172,9.414,9.262,20.178,9.262,32.291c0,15.378-4.682,28.078-14.039,38.095
		c-9.357,10.019-23.35,16.334-41.969,18.942c9.264,5.221,16.908,10.951,22.939,17.194c6.027,6.245,14.156,17.335,24.385,33.271
		l25.904,39.982h-51.23l-30.969-44.595c-11-15.937-18.525-25.978-22.576-30.126c-4.053-4.146-8.346-6.99-12.881-8.527
		s-11.723-2.307-21.563-2.307h-8.684v85.555H1960.48z M2003.316,2963.791h31.693c20.553,0,33.381-0.839,38.496-2.517
		c5.111-1.678,9.117-4.564,12.012-8.667c2.895-4.101,4.34-9.227,4.34-15.378c0-6.896-1.904-12.463-5.717-16.705
		c-3.811-4.24-9.188-6.92-16.135-8.038c-3.473-0.466-13.893-0.698-31.26-0.698h-33.43V2963.791z"/>
</g>
<g>
	<path fill="#231F20" d="M426.511,829.808c-92.172,0-166.89,74.718-166.89,166.889c0,92.17,74.718,166.889,166.89,166.889
		c92.17,0,166.89-74.719,166.89-166.889C593.401,904.525,518.681,829.808,426.511,829.808z M426.511,1114.802
		c-65.229,0-118.105-52.878-118.105-118.105c0-65.229,52.877-118.106,118.105-118.106s118.106,52.878,118.106,118.106
		C544.618,1061.924,491.74,1114.802,426.511,1114.802z"/>
	<path fill="#231F20" d="M796.451,1120.551c0-22.297,0.885-50.339,1.968-62.313c1.079-11.975,4.267-40.354,7.075-63.063
		c2.811-22.71,7.061-48.048,9.438-56.308l9.124-20.848c-19.342-65.734-62.359-123.98-121.205-168.303l40.791-36.454
		c2.77,2.193,5.512,4.418,8.228,6.675c42.85,35.615,76.549,77.201,100.165,123.607c6.787,13.336,12.653,26.904,17.592,40.676
		l12.15-1.661c8.434-1.65,27.014-4.521,41.285-6.38c14.273-1.858,39.931-3.716,57.018-4.13c17.085-0.414,42.596-0.505,56.619,0.75
		c15.159,1.356,39.252,6.168,39.252,6.168c-29.686-111.378-100.582-210.174-198.789-284.928l40.85-36.545
		c5.01,3.936,9.963,7.938,14.855,12.005c66.358,55.154,118.517,119.495,155.021,191.232c38.01,74.688,57.283,154.078,57.283,235.965
		c0,30.609-2.693,60.871-8.052,90.668l0.244,5.408c1.081,14.865,3.748,27.267,5.923,27.559c2.174,0.291,21.109,2.824,42.073,5.631
		c20.962,2.806,57.878,3.723,82.036,2.037l52.139-3.635l15.219-1.41c0.904-4.456,1.762-8.924,2.57-13.406l-2.967-0.53l-73.175-5.739
		c-6.899-0.541-12.542-6.39-12.542-12.998V766.216l55.682,0.166c-13.568-35.225-30.165-69.347-49.531-102.153l-0.675-0.054
		c-14.871,9.115-32.517,14.401-51.422,14.401c-43.412,0-80.178-27.866-91.965-65.969l-13.143-1.628
		c-9.634-1.787-21.021-4.504-25.305-6.037c-4.279-1.532-8.877-6.133-10.217-10.22c-1.338-4.088-3.088-10.567-3.891-14.399
		c-0.805-3.834-1.459-11.986-1.459-18.119c0-6.131,0.219-14.911,0.485-19.51c0.267-4.598,2.235-12.751,4.378-18.116
		c2.141-5.366,5.645-12.474,7.787-15.796c2.141-3.321,5.645-8.965,7.783-12.541c2.142-3.578,11.558-9.639,20.925-13.472l4.747-2.015
		c-16.492-14.747-33.678-28.956-51.518-42.59l40.943-36.612c7.315,5.722,14.538,11.546,21.666,17.472
		c17.195,14.292,33.686,29.038,49.457,44.222l45.545-9l17.725-3.343c16.804-3.17,44.439-7.563,61.413-9.762l17.107-2.219
		c16.973-2.201,36.553-5.465,43.512-7.252c4.43-1.139,13.053-4.604,22.396-8.884l3.996-1.932
		c-44.473-50.008-94.576-96.386-149.531-138.489l41.048-36.673c9.585,7.48,19.045,15.101,28.377,22.858
		c47.539,39.511,90.805,81.768,129.615,126.544l1.34-0.635c3.809-2.028,7.33-3.91,10.342-5.528
		c12.848-6.897,36.496-15.678,52.551-19.51c16.061-3.832,41.9-8.223,57.422-9.756c15.52-1.532,42.236-2.938,59.361-3.121
		l24.336-0.261c17.127-0.184,45.094,0.909,62.146,2.429l10.975,0.979c17.057,1.52,42.174,6.107,55.824,10.195
		c13.65,4.087,37.555,13.014,53.119,19.834l2.758,1.209c15.566,6.822,39.471,18.047,53.119,24.945
		c13.652,6.898,27.227,12.752,30.168,13.008c2.943,0.256,19.266,2.074,36.27,4.041l2.398,0.279
		c17.004,1.967,40.988,4.412,53.299,5.434c12.313,1.022,23.26,2.695,24.33,3.717s3.48,7.293,5.354,13.937
		c1.875,6.644,4.938,20.647,6.811,31.123c1.875,10.476,4.283,29.708,5.354,42.738c1.07,13.029,0.633,29.544-0.975,36.696
		c-1.605,7.154-4.889,14.68-7.299,16.725c-2.408,2.044-11.166,5.389-19.461,7.433c-8.301,2.044-28.662,5.18-45.256,6.968
		l-35.922,4.344c-7.885,43.27-47.252,76.259-94.484,76.259c-43.119,0-79.684-27.494-91.723-65.205l-33.814-0.368l-34.066-0.328
		c-17.127-0.166-45.154-0.244-62.283-0.176l-38.086,0.232c24.1,49.9,43.336,100.988,57.656,153.041l666.563,0.443v328.843
		c-6.406,2.494-13.752,9.556-16.322,15.69l-0.092,0.217c-2.568,6.134-6.531,16.257-8.805,22.498l-4.314,11.845
		c-2.273,6.24-9.797,11.358-16.719,11.377l-54.684,0.042c10.066,11.281,16.154,25.924,16.154,41.904
		c0,35.576-30.168,64.52-67.248,64.52s-67.246-28.943-67.246-64.52c0-15.836,5.977-30.359,15.881-41.6l-48.846-0.131
		c9.977,11.259,16,25.832,16,41.73c0,35.576-30.168,64.52-67.248,64.52s-67.246-28.943-67.246-64.52
		c0-15.729,5.896-30.162,15.682-41.37l-158.961,0.557c-6.924,0.018-17.527,2.669-23.57,5.891l-31.506,16.808
		c-6.041,3.223-16.645,5.86-23.566,5.86h-51.898c-3.463,0-6.791-1.34-9.367-3.499l-1.455-0.641
		c-16.146,74.018-42.063,146.255-77.602,216.088c-62.297,122.421-151.375,232.277-264.762,326.516
		c-9.34,7.762-18.805,15.387-28.396,22.872l-41.039-36.678c195.55-149.821,329.683-353.767,367.236-582.748l-0.777-1.173
		l-7.297-4.646c-5.758-3.664-16.119-7.031-23.021-7.479l-44.098-2.87c-6.904-0.45-18.213-0.818-25.137-0.818h-96.572l-4.197,0.218
		c-0.551,3.277-1.125,6.551-1.723,9.82l17.559,0.271l10.238,0.073c24.219,0.17,45.805,0.322,47.963,0.339
		c2.16,0.017,11.889,4.421,21.621,9.79c9.732,5.368,21.057,18.375,25.164,28.905c4.109,10.53,7.473,25.901,7.473,34.16
		s-0.531,18.056-1.18,21.771c-0.648,3.715-3.303,6.756-5.898,6.756s-7.197-4.392-10.227-9.759c0,0,0,0-2.357,0
		c-2.355,0-11.797,6.756-14.152,8.259c-2.361,1.5-2.361,1.5-2.361,1.5c-4.758,2.891-11.482,5.932-14.943,6.757c0,0,0,0-3.145-0.749
		l-5.223-7.866c-4.279,34.173-34.689,60.747-71.451,60.747c-15.912,0-30.635-4.979-42.563-13.396l-0.906-0.042
		c-6.656,15.687-13.904,31.236-21.742,46.639c-49.404,97.079-120.021,184.177-209.893,258.873
		c-7.128,5.925-14.351,11.749-21.666,17.471l-40.958-36.601c120.36-91.984,211.036-210.123,258.654-343.373l-1.535-1.22
		c-7.787,1.651-16.102,3.339-18.48,3.751c-2.379,0.413-6.094,2.778-8.256,5.256s-9.949,5.35-17.302,6.382s-21.51,2.215-31.458,2.629
		c-9.947,0.414-27.108,1.088-38.139,1.501c-11.031,0.412-23.416,0.073-27.525-0.751c-4.108-0.825-9.307-4.573-11.549-8.329
		c-2.241-3.755-4.119-8.518-4.171-10.582c-0.052-2.063-6.818-3.416-15.035-3.002c0,0,0,0-3.931,1.503
		c-3.936,1.499-3.936,1.499-3.936,1.499c-6.223,2.144-16.273,5.925-22.327,8.401l-14.388,5.693
		c-1.316,2.694-2.659,5.383-4.023,8.064c-36.505,71.737-88.663,136.077-155.021,191.231c-4.927,4.096-9.916,8.126-14.961,12.089
		l-40.875-36.527c62.57-47.602,114.062-104.959,150.885-169.114l-4.303-13.043c-2.182,36.195-33.571,64.998-71.844,64.998
		c-37.203,0-67.902-27.214-71.594-61.978l-23.169,8.719c-11.247,0.62-28.056,0.959-37.356,0.752l-17.706-5.437
		c-14.954,17.408-31.671,33.807-50.074,49.104c-2.72,2.261-5.466,4.49-8.241,6.688l-40.758-36.481
		c38.583-29.064,70.359-64.114,93.119-103.335L796.451,1120.551z"/>
	<path fill="#FFFFFF" d="M1291.824,621.171c11.49,18.502,22.156,37.417,31.982,56.728c14.732,28.949,27.381,58.419,37.928,88.339
		l208.309-0.42c-15.564-52.762-36.342-103.852-61.848-152.875l-69.02,0.235c-17.125,0.069-45.154,0.171-62.281,0.226l-82.6,0.35
		c-0.779,2.409-1.662,4.773-2.637,7.093L1291.824,621.171z"/>
	<g>
		<path fill="#FFFFFF" d="M1655.092,372.53c0,0-66.791-4.25-120.459,4.502c-31.195,5.087-95.082,24.748-103.121,45.348
			c-1.273,3.266,4.645,10.403,4.873,13.9c0.416,6.418-3.383,11.923-0.166,12.084c85.332,4.248,197.582-2.021,197.582-2.021
			L1655.092,372.53z"/>
		<path fill="#FFFFFF" d="M1646.137,446.032l20.33-72.879c0,0,35.002,1.379,77.836,17.211c23.4,8.65,52.166,18.334,54.166,33.668
			c0.287,2.194,0.256,6.818-0.666,8.832C1793.303,442.698,1675.969,445.032,1646.137,446.032z"/>
	</g>
	<path fill="#FFFFFF" d="M929.674,1043.142c0,6.627-5.633,12.005-12.58,12.005h-75.301c-6.94,0-12.583-5.378-12.583-12.005
		l3.786-73.493c0-6.635,5.625-12.013,12.584-12.013h71.514c6.947,0,12.58,5.378,12.58,12.013V1043.142z"/>
	<path fill="#231F20" d="M1767.283,1356.36h-5.715c0-20.369,14.096-36.764,35.811-36.764c25.268,0,36.762,20.454,36.762,32.764
		c0,12.583-6.672,19.088-7.621,23.504l0.381,23.546c9.715,0,30.475,9.332,30.475,9.332l69.908,61.336l10.672,32.762h107.428v23.62
		c73.908,29.715,74.287,102.097,74.287,102.097h-16.379c0,37.716-24.057,101.672-99.104,101.672c-44.662,0-74.25-26.53-87.33-54.433
		h-183.48c0,0-22.477-5.586-22.477-22.857c0-66.563-39.621-98.288-39.621-98.288l-6.922,7.548c0,0,31.668,24.197,31.668,70.166
		c0,53.334-43,98.834-96.332,98.834c-49,0-99-38.166-99-94.5c0-61.168,47.803-100.5,94.664-100.5c28.336,0,44.336,9,44.336,9
		l-0.035-12.644l-40.762-7.618v-34.668c0,0,28.57,0,38.096,0c43.686,0,66.006-67.803,86.1-95.24
		c14.217-19.42,23.35-15.319,20.57-10.286c-21.59,39.12-27.432,98.288-27.432,98.288l20.191-0.381l54.861-64.002V1407.6
		C1758.137,1407.6,1767.283,1356.36,1767.283,1356.36z M1739.854,1515.03l57.525,22.857l43.809-36.571l-31.617-31.62
		L1739.854,1515.03z M1908.025,1623.698c0,0,1.666-47.166,48-74l-53.502,0.382L1908.025,1623.698z M1942.857,1637.698
		c0,31.238,27.857,58.289,61.764,58.289c36.07,0,63.238-29.334,63.238-60.954c0-47.62-43.668-67.001-70.002-63.001l13.998,32.905
		c0,0,23.17,2.854,23.17,28.761c0,16-11.428,29.834-29.334,29.834c-20.57,0-30.834-18.213-30.834-29.642
		c0-15.238,9.5-22.692,9.5-22.692l-13.166-29.166C1955.951,1588.508,1942.857,1614.078,1942.857,1637.698z M1643.848,1591.604
		l-21.238,23.927c0,0,5.5,11.637,5.5,19c0,19.048-15.625,29-31,29c-17.646,0-28.752-14.086-28.752-29.832
		c0-28.954,31-30.168,31-30.168l17.824-28.308c-24.156-12.024-81.527,5.589-81.527,59.049c0,22.718,17.039,61.335,67.053,61.335
		c26.158,0,57.486-23.408,57.486-61.408C1660.193,1605.625,1643.848,1591.604,1643.848,1591.604z"/>
</g>
</svg>
